<svg width="90" height="90" viewBox="0 0 90 90" fill="none" xmlns="http://www.w3.org/2000/svg">
<path d="M36.1733 84.6584L5.33984 53.825V36.1743L36.1733 5.34082H53.824L84.6574 36.1743V53.825L53.824 84.6584H36.1733V84.6584Z" stroke="#00B37E" stroke-miterlimit="10"/>
<path d="M88.9996 44.9996L45 1L1.00036 44.9996L45 88.9993L88.9996 44.9996Z" stroke="#00B37E" stroke-miterlimit="10"/>
<path d="M12.4736 33.3521C18.8069 33.3521 23.9106 38.4916 23.9106 44.791C23.9106 46.5487 23.5121 48.1729 22.8166 49.6636C23.7113 49.3646 24.64 49.1992 25.6345 49.1992C29.7457 49.1992 33.1933 52.0171 34.122 55.8295C34.4209 55.7637 34.7199 55.7637 35.0507 55.7637C38.2333 55.7637 40.82 58.2827 40.9515 61.4334C42.1791 60.8036 43.5383 60.4389 44.997 60.4389C46.4558 60.4389 47.8488 60.8036 49.0425 61.4334C49.174 58.2847 51.7608 55.7637 54.9434 55.7637C55.2423 55.7637 55.5731 55.7976 55.872 55.8295C56.8007 52.0171 60.2483 49.1992 64.3596 49.1992C65.354 49.1992 66.2827 49.3646 67.1775 49.6636C66.482 48.1709 66.0834 46.5467 66.0834 44.791C66.0834 38.4577 71.1891 33.3521 77.5224 33.3521" stroke="#00B37E" stroke-miterlimit="10"/>
<path d="M48.1288 47.1445H41.8932L39.2666 70.6223H50.7275L48.1268 47.1445H48.1288Z" fill="url(#paint0_linear_8464_18803)"/>
<path d="M46.4888 47.1445H43.5354L42.2979 70.6223H47.7264L46.4888 47.1445V47.1445Z" fill="url(#paint1_linear_8464_18803)"/>
<path d="M44.9981 7.78564C43.332 7.78564 39.2666 16.2433 39.2666 19.9042V45.8312H50.7275V19.9042C50.7275 16.2692 46.688 7.78564 44.9961 7.78564H44.9981Z" fill="white"/>
<path d="M48.5336 16.4703C48.3064 16.2929 47.296 15.5356 44.9982 15.5356C42.7005 15.5356 41.6662 16.2929 41.4629 16.4703C41.437 16.4962 41.4131 16.5201 41.4131 16.5719V17.2037C41.4131 17.3053 41.5386 17.381 41.6144 17.3053C42.0189 17.0283 43.0532 16.4982 44.9982 16.4982C46.9433 16.4982 47.9776 17.0283 48.3821 17.3053C48.4837 17.3551 48.5834 17.3053 48.5834 17.2037V16.5719C48.5834 16.546 48.5834 16.4962 48.5336 16.4703Z" fill="#00B37E"/>
<path d="M39.2682 35.1274C39.2682 35.1274 32.3769 40.6317 31.9464 48.5075C31.9205 48.9359 32.351 49.2907 32.7535 49.1392C34.7723 48.5075 36.1613 45.833 39.2662 45.833V35.1294L39.2682 35.1274Z" fill="url(#paint2_linear_8464_18803)"/>
<path d="M50.7295 35.1274C50.7295 35.1274 57.6208 40.6317 58.0512 48.5075C58.0771 48.9359 57.6467 49.2907 57.2441 49.1392C55.2234 48.5075 53.8364 45.833 50.7315 45.833V35.1294L50.7295 35.1274Z" fill="url(#paint3_linear_8464_18803)"/>
<path d="M44.9981 45.8311H39.2666L40.5042 48.4815C40.5042 48.4815 43.9119 48.8343 44.9981 48.8343C46.0842 48.8343 49.4919 48.4815 49.4919 48.4815L50.7295 45.8311H44.9981Z" fill="url(#paint4_linear_8464_18803)"/>
<path d="M44.9974 35.1274C44.3657 35.1274 43.6084 41.6919 43.6084 48.7606C43.6084 49.8706 44.3159 50.9826 44.9974 50.9826C45.679 50.9826 46.3864 49.8726 46.3864 48.7606C46.4123 41.6919 45.6291 35.1274 44.9974 35.1274Z" fill="url(#paint5_linear_8464_18803)"/>
<path d="M50.3219 67.5274C50.2462 67.4397 50.1266 67.3998 49.9951 67.4277L40.6068 69.9467C40.4972 69.9806 40.4135 70.0663 40.3836 70.1779C40.3557 70.2875 40.3896 70.4051 40.4693 70.4848L41.8164 71.8319L39.8256 72.368C39.716 72.3999 39.6323 72.4876 39.6044 72.5992C39.5765 72.7088 39.6103 72.8264 39.6901 72.9061L44.9113 78.1234C44.9731 78.1852 45.0568 78.219 45.1405 78.219C45.1664 78.219 45.1943 78.2151 45.2202 78.2091C45.3298 78.1812 45.4175 78.0955 45.4534 77.9779L45.9815 75.997L47.3366 77.3542C47.3984 77.4139 47.4801 77.4478 47.5638 77.4478C47.5897 77.4478 47.6176 77.4438 47.6436 77.4378C47.7551 77.4099 47.8408 77.3262 47.8767 77.2087L50.3897 67.8263C50.4196 67.7227 50.3937 67.6091 50.3219 67.5274V67.5274ZM45.0309 77.4877L40.3258 72.7865L42.2529 72.2684L45.5451 75.5606L45.0309 77.4877V77.4877ZM47.4562 76.7164L46.1409 75.4012L47.3586 70.8554C47.3944 70.7419 47.3626 70.6183 47.2789 70.5346C47.1952 70.4509 47.0736 70.419 46.966 70.4509L42.4123 71.6725L41.105 70.3652L49.7799 68.0376L47.4562 76.7164V76.7164Z" fill="#00B37E"/>
<defs>
<linearGradient id="paint0_linear_8464_18803" x1="44.9981" y1="47.1465" x2="44.9981" y2="77.9222" gradientUnits="userSpaceOnUse">
<stop stop-color="#00B37E"/>
<stop offset="0.38" stop-color="#00875F" stop-opacity="0"/>
</linearGradient>
<linearGradient id="paint1_linear_8464_18803" x1="45.0121" y1="47.1465" x2="45.0121" y2="77.9222" gradientUnits="userSpaceOnUse">
<stop stop-color="#00B37E"/>
<stop offset="0.46" stop-color="#00B37E" stop-opacity="0"/>
</linearGradient>
<linearGradient id="paint2_linear_8464_18803" x1="35.6073" y1="50.1197" x2="35.6073" y2="36.4965" gradientUnits="userSpaceOnUse">
<stop stop-color="#015F43"/>
<stop offset="1" stop-color="#00B37E"/>
</linearGradient>
<linearGradient id="paint3_linear_8464_18803" x1="54.3904" y1="50.1197" x2="54.3904" y2="36.4965" gradientUnits="userSpaceOnUse">
<stop stop-color="#015F43"/>
<stop offset="1" stop-color="#00B37E"/>
</linearGradient>
<linearGradient id="paint4_linear_8464_18803" x1="44.9981" y1="48.5672" x2="44.9981" y2="37.9573" gradientUnits="userSpaceOnUse">
<stop stop-color="#015F43"/>
<stop offset="1" stop-color="#00B37E"/>
</linearGradient>
<linearGradient id="paint5_linear_8464_18803" x1="44.9994" y1="48.5673" x2="44.9994" y2="37.9573" gradientUnits="userSpaceOnUse">
<stop stop-color="#015F43"/>
<stop offset="1" stop-color="#00B37E"/>
</linearGradient>
</defs>
</svg>
